<svg xmlns="http://www.w3.org/2000/svg" version="1.1" xmlns:xlink="http://www.w3.org/1999/xlink" xmlns:svgjs="http://svgjs.dev/svgjs" viewBox="0 0 1422 800"><defs><filter id="uuunion-blur" x="-100%" y="-100%" width="400%" height="400%" color-interpolation-filters="sRGB">
        <feGaussianBlur in="SourceGraphic" stdDeviation="22 22" result="blur"></feGaussianBlur>
        <feDropShadow stdDeviation="80" in="blur" dx="65" dy="65" flood-color="#0c1821" flood-opacity="1" x="0%" y="0%" width="100%" height="100%"></feDropShadow>
      </filter><filter id="uuunion-blur2" x="-100%" y="-100%" width="400%" height="400%" color-interpolation-filters="sRGB">
        <feGaussianBlur in="SourceGraphic" stdDeviation="22 22" result="blur"></feGaussianBlur>
        <feDropShadow stdDeviation="80" in="blur" dx="-65" dy="-65" flood-color="#0c1821" flood-opacity="1" x="0%" y="0%" width="100%" height="100%"></feDropShadow>
      </filter><linearGradient gradientTransform="rotate(131, 0.5, 0.5)" x1="50%" y1="0%" x2="50%" y2="100%" id="uuunion-grad"><stop stop-color="#00C6B8" offset="10%"></stop><stop stop-color="#0c1821" offset="90%"></stop></linearGradient><linearGradient gradientTransform="rotate(61, 0.5, 0.5)" x1="50%" y1="0%" x2="50%" y2="100%" id="uuunion-grad2"><stop stop-color="#00C6B8" offset="25%"></stop><stop stop-color="#0c1821" offset="100%"></stop></linearGradient><linearGradient gradientTransform="rotate(333, 0.5, 0.5)" x1="50%" y1="0%" x2="50%" y2="100%" id="uuunion-grad3"><stop stop-color="#00C6B8" offset="0%"></stop><stop stop-color="#0c1821" offset="75%"></stop></linearGradient></defs><path d="M-131.38 -85.32Q-118.4 -87.54 -105.41 -88.68 -92.43 -88.58 -79.45 -87.25 -66.46 -84.87 -53.48 -81.8 -40.49 -78.47 -27.51 -75.36 -14.53 -72.91 -1.54 -71.48 11.43 -71.27 24.42 -72.31 37.4 -74.45 50.39 -77.39 63.37 -80.7 76.35 -83.91 89.34 -86.56 102.32 -88.27 115.31 -88.79 128.29 -88.05 141.28 -86.16 154.26 -83.38 167.24 -80.12 180.23 -76.84 193.21 -74.01 206.2 -72.04 219.18 -71.21 232.16 -71.64 245.15 -73.26 258.13 -75.85 271.12 -79.04 284.1 -82.36 297.09 -85.34 310.07 -87.56 323.05 -88.69 336.04 -88.57 349.02 -87.23 362.01 -84.85 374.99 -81.77 387.97 -78.44 400.96 -75.33 413.94 -72.89 426.93 -71.47 439.91 -71.27 452.9 -72.32 465.88 -74.47 478.86 -77.41 491.85 -80.72 504.83 -83.93 517.82 -86.58 530.8 -88.28 543.79 -88.79 556.77 -88.04 569.75 -86.14 582.74 -83.36 595.72 -80.1 608.71 -76.82 621.69 -73.99 634.68 -72.03 647.66 -71.21 660.64 -71.65 673.63 -73.28 686.61 -75.88 699.6 -79.06 712.58 -82.38 725.56 -85.36 738.55 -87.57 751.53 -88.69 764.52 -88.57 777.5 -87.22 790.49 -84.83 803.47 -81.75 816.45 -78.42 829.44 -75.31 842.42 -72.88 855.41 -71.46 868.39 -71.27 881.38 -72.33 894.36 -74.49 907.34 -77.44 920.33 -80.75 933.31 -83.96 946.3 -86.59 959.28 -88.28 972.27 -88.79 985.25 -88.03 998.23 -86.12 1011.22 -83.34 1024.2 -80.07 1037.19 -76.79 1050.17 -73.98 1063.16 -72.02 1076.14 -71.21 1089.12 -71.66 1102.11 -73.3 1115.09 -75.9 1128.08 -79.09 1141.06 -82.41 1154.05 -85.38 1167.03 -87.58 1180.01 -88.7 1193 -88.56 1205.98 -87.2 1218.97 -84.81 1231.95 -81.72 1244.94 -78.39 1257.92 -75.29 1270.9 -72.86 1283.89 -71.46 1296.87 -71.28 1309.86 -72.35 1322.84 -74.51 1335.83 -77.46 1348.81 -80.78 1361.79 -83.98 1374.78 -86.61 1387.76 -88.29 1400.75 -88.79 1413.73 -88.02 1426.72 -86.1 1439.7 -83.31 1452.68 -80.04 1465.67 -76.77 1478.65 -73.96 1491.64 -72.01 1504.62 -71.21 1517.61 -71.66 1530.59 -73.32 1530.89 -58.15 1534.56 -42.97 1541.22 -27.8 1550.2 -12.63 1560.6 2.53 1571.35 17.7 1581.39 32.87 1589.68 48.04 1595.41 63.21 1597.98 78.38 1597.14 93.55 1592.97 108.72 1585.9 123.89 1576.63 139.06 1566.11 154.23 1555.39 169.41 1545.57 184.58 1537.62 199.75 1532.36 214.92 1530.32 230.09 1531.69 245.26 1536.35 260.43 1543.82 275.6 1553.35 290.77 1563.97 305.94 1574.62 321.11 1584.21 336.28 1591.78 351.45 1596.57 366.63 1598.09 381.8 1596.18 396.97 1591.04 412.14 1583.19 427.31 1573.43 442.48 1562.73 457.65 1552.18 472.82 1542.84 487.99 1535.66 503.16 1531.36 518.33 1530.38 533.5 1532.81 548.67 1538.41 563.85 1546.62 579.02 1556.6 594.19 1567.35 609.36 1577.78 624.53 1586.84 639.7 1593.61 654.87 1597.41 670.04 1597.86 685.21 1594.9 700.38 1588.85 715.55 1580.3 730.72 1570.13 745.89 1559.36 761.07 1549.08 776.24 1540.32 791.41 1533.98 806.58 1530.68 821.75 1530.78 836.92 1534.24 852.09 1540.73 867.26 1549.59 882.43 1559.93 897.6 1546.64 901.96 1533.36 903.16 1520.07 901.05 1506.78 895.92 1493.49 888.5 1480.21 879.87 1466.92 871.25 1453.63 863.89 1440.35 858.84 1427.06 856.82 1413.77 858.12 1400.48 862.55 1387.2 869.49 1373.91 877.93 1360.62 886.67 1347.33 894.45 1334.05 900.16 1320.76 902.98 1307.47 902.5 1294.19 898.8 1280.9 892.4 1267.61 884.23 1254.32 875.44 1241.04 867.31 1227.75 861 1214.46 857.41 1201.18 857.06 1187.89 859.99 1174.6 865.79 1161.31 873.63 1148.03 882.38 1134.74 890.79 1121.45 897.65 1108.17 901.98 1094.88 903.16 1081.59 901.02 1068.3 895.86 1055.02 888.44 1041.73 879.8 1028.44 871.19 1015.16 863.84 1001.87 858.81 988.58 856.81 975.29 858.14 962.01 862.6 948.72 869.55 935.43 878 922.15 886.74 908.86 894.51 895.57 900.2 882.28 902.99 869 902.49 855.71 898.76 842.42 892.34 829.13 884.16 815.85 875.38 802.56 867.25 789.27 860.96 775.99 857.39 762.7 857.07 749.41 860.03 736.12 865.85 722.84 873.7 709.55 882.45 696.26 890.85 682.98 897.69 669.69 902 656.4 903.15 643.11 900.99 629.83 895.81 616.54 888.37 603.25 879.73 589.97 871.12 576.68 863.79 563.39 858.78 550.1 856.81 536.82 858.16 523.53 862.65 510.24 869.62 496.96 878.07 483.67 886.81 470.38 894.56 457.1 900.23 443.81 903 430.52 902.47 417.23 898.72 403.95 892.29 390.66 884.09 377.37 875.31 364.09 867.2 350.8 860.92 337.51 857.38 324.22 857.08 310.94 860.06 297.65 865.9 284.36 873.76 271.08 882.52 257.79 890.91 244.5 897.74 231.21 902.02 217.93 903.15 204.64 900.96 191.35 895.76 178.07 888.31 164.78 879.66 151.49 871.06 138.2 863.74 124.92 858.75 111.63 856.81 98.34 858.19 85.06 862.69 71.77 869.68 58.48 878.14 45.19 886.87 31.91 894.62 18.62 900.26 5.33 903.01 -7.94 902.45 -21.23 898.68 -34.52 892.23 -47.8 884.02 -61.09 875.24 -74.38 867.14 -87.67 860.88 -100.95 857.36 -114.24 857.09 -132.51 855.6 -134.64 836.23 -132.56 821.37 -131.44 806.5 -131.41 791.64 -132.47 776.77 -134.51 761.91 -137.33 747.05 -140.63 732.18 -144.09 717.32 -147.36 702.46 -150.11 687.59 -152.06 672.73 -153.01 657.86 -152.86 643 -151.64 628.14 -149.46 613.27 -146.55 598.41 -143.2 583.54 -139.74 568.68 -136.54 553.82 -133.9 538.95 -132.1 524.09 -131.31 509.23 -131.63 494.36 -133.01 479.5 -135.32 464.63 -138.32 449.77 -141.71 434.91 -145.15 420.04 -148.29 405.18 -150.82 390.31 -152.47 375.45 -153.08 360.59 -152.59 345.72 -151.05 330.86 -148.62 316 -145.54 301.13 -142.11 286.27 -138.7 271.4 -135.64 256.54 -133.23 241.68 -131.74 226.81 -131.29 211.95 -131.95 197.08 -133.64 182.22 -136.2 167.36 -139.36 152.49 -142.8 137.63 -146.18 122.76 -149.16 107.9 -151.44 93.04 -152.77 78.17 -153.05 63.31 -152.22 48.45 -150.38 33.58 -147.71 18.72 -144.49 3.85 -141.03 -11 -137.69 -25.86 -134.8 -40.73 -132.66 -55.59 -131.48 -70.46 -131.38 -85.32" fill="url(#uuunion-grad)"></path><path d="M-131.39 -85.32Q-131.49 -70.45 -132.67 -55.59 -134.81 -40.73 -137.7 -25.86 -141.04 -11 -144.5 3.86 -147.72 18.72 -150.39 33.58 -152.23 48.45 -153.06 63.31 -152.79 78.18 -151.45 93.04 -149.17 107.9 -146.19 122.77 -142.81 137.63 -139.37 152.5 -136.21 167.36 -133.65 182.22 -131.96 197.09 -131.3 211.95 -131.75 226.81 -133.24 241.68 -135.65 256.54 -138.71 271.41 -142.12 286.27 -145.55 301.13 -148.63 316 -151.06 330.86 -152.6 345.73 -153.09 360.59 -147.11 381.44 -132.68 385.34 -123.61 384.2 -114.54 384.07 -105.46 384.96 -96.39 386.81 -87.32 389.51 -78.25 392.88 -69.17 396.71 -60.1 400.75 -51.03 404.74 -41.96 408.43 -32.89 411.57 -23.81 413.98 -6.67 415.85 -3.64 415.97 7.41 411.72 18.52 406 29.67 399.09 40.86 391.35 52.09 383.25 63.36 375.3 74.66 367.97 85.99 361.67 97.35 356.71 108.72 353.27 120.12 351.37 131.53 350.88 142.95 351.52 154.38 352.93 165.81 354.63 177.23 356.16 188.66 357.04 200.07 356.89 211.47 355.42 222.85 352.46 234.22 348.02 245.56 342.23 256.88 335.36 268.16 327.8 279.42 319.99 290.64 312.4 301.83 305.46 312.98 299.56 324.1 294.96 335.17 291.8 346.21 290.07 357.21 289.64 368.16 290.21 379.08 291.42 389.96 292.84 400.8 294 411.61 294.49 422.38 293.96 433.12 292.14 443.84 288.92 454.52 284.32 465.18 278.49 475.82 271.71 486.45 264.35 497.06 256.84 507.66 249.61 518.25 243.06 528.85 237.54 539.44 233.27 550.05 230.35 560.66 228.77 571.29 228.35 581.94 228.82 592.62 229.82 603.33 230.93 614.07 231.74 624.84 231.84 635.66 230.93 646.53 228.8 657.44 225.35 668.41 220.63 679.43 214.8 690.5 208.14 701.64 201 712.85 193.8 724.11 186.93 735.45 180.76 746.85 175.6 758.31 171.63 769.85 168.93 781.45 167.45 793.12 167.02 804.86 167.36 816.66 168.12 828.52 168.92 840.45 169.36 852.43 169.09 864.46 167.83 876.55 165.41 888.68 161.76 900.86 156.95 913.07 151.15 925.31 144.64 937.58 137.76 949.88 130.87 962.18 124.37 974.5 118.57 986.82 113.74 999.14 110.04 1011.45 107.52 1023.74 106.11 1036 105.63 1048.24 105.81 1060.43 106.32 1072.58 106.79 1084.69 106.87 1096.73 106.24 1108.71 104.65 1120.62 101.98 1132.45 98.17 1144.2 93.31 1155.86 87.57 1167.44 81.23 1178.91 74.61 1190.28 68.05 1201.55 61.91 1212.71 56.46 1223.75 51.95 1234.69 48.49 1245.5 46.12 1256.21 44.74 1266.79 44.18 1277.26 44.18 1287.61 44.41 1297.84 44.55 1307.96 44.27 1317.97 43.3 1327.87 41.41 1337.67 38.51 1347.36 34.58 1356.96 29.7 1366.47 24.06 1375.89 17.92 1385.24 11.57 1394.52 5.35 1403.73 -0.44 1412.89 -5.54 1422 -9.77 1411.02 -27.01 1401.55 -44.26 1394.88 -61.5 1391.93 -78.74 1393.1 -95.99 1398.23 -113.23 1405.73 -138.57 1392.58 -144.81 1380.32 -142.35 1368.06 -139.61 1355.8 -136.92 1343.54 -134.6 1331.28 -132.94 1319.02 -132.15 1306.76 -132.32 1294.5 -133.42 1282.24 -135.34 1269.98 -137.82 1257.72 -140.57 1245.46 -143.25 1233.2 -145.53 1220.94 -147.13 1208.68 -147.86 1196.42 -147.63 1184.16 -146.46 1171.9 -144.5 1159.64 -141.98 1147.38 -139.23 1135.12 -136.56 1122.86 -134.32 1110.6 -132.78 1098.34 -132.11 1086.08 -132.41 1073.82 -133.65 1061.56 -135.65 1049.3 -138.19 1037.04 -140.96 1024.78 -143.6 1012.52 -145.8 1000.26 -147.29 988 -147.89 975.74 -147.52 963.48 -146.23 951.22 -144.17 938.96 -141.61 926.7 -138.84 914.44 -136.22 902.18 -134.06 889.92 -132.63 877.66 -132.1 865.4 -132.53 853.14 -133.88 840.88 -135.98 828.62 -138.57 816.36 -141.34 804.1 -143.94 791.84 -146.06 779.58 -147.43 767.32 -147.89 755.06 -147.39 742.8 -145.98 730.54 -143.84 718.28 -141.23 706.02 -138.46 693.76 -135.89 681.5 -133.81 669.24 -132.5 656.98 -132.1 644.72 -132.67 632.46 -134.14 620.2 -136.32 607.94 -138.96 595.68 -141.72 583.42 -144.27 571.16 -146.3 558.9 -147.55 546.64 -147.88 534.38 -147.25 522.12 -145.72 509.86 -143.5 497.6 -140.84 485.34 -138.08 473.08 -135.56 460.82 -133.58 448.56 -132.38 436.3 -132.12 424.04 -132.82 411.78 -134.4 399.52 -136.67 387.26 -139.34 375 -142.09 362.74 -144.59 350.48 -146.52 338.22 -147.66 325.96 -147.85 313.7 -147.08 301.44 -145.45 289.18 -143.15 276.92 -140.46 264.66 -137.71 252.4 -135.25 240.14 -133.36 227.87 -132.29 215.61 -132.16 203.35 -132.99 191.09 -134.68 178.83 -137.02 166.57 -139.73 154.31 -142.46 142.05 -144.9 129.79 -146.73 117.53 -147.74 105.27 -147.8 93.01 -146.91 80.75 -145.16 68.49 -142.79 56.23 -140.07 43.97 -137.34 31.71 -134.94 19.45 -133.16 7.19 -132.21 -5.06 -132.22 -17.32 -133.18 -29.58 -134.97 -41.84 -137.38 -54.1 -140.11 -66.36 -142.83 -78.62 -145.2 -90.88 -146.93 -103.14 -147.81 -115.4 -147.73 -127.66 -146.71 -139.92 -144.86 -152.18 -142.42 -145.89 -128.13 -140.16 -113.86 -135.27 -99.59 -131.39 -85.32" fill="url(#uuunion-grad2)" filter="url(#uuunion-blur)"></path><path d="M1437.12 305.53Q1446.13 305.21 1455.13 305.84 1464.14 307.37 1473.14 309.72 1482.14 312.73 1491.15 316.2 1500.15 319.91 1509.16 323.64 1518.16 327.12 1527.17 330.15 1536.17 332.53 1545.18 334.1 1554.18 334.77 1563.18 334.5 1572.19 333.29 1581.19 331.23 1590.7 348.93 1596.57 366.63 1598 384.32 1594.81 402.02 1587.41 419.72 1576.84 437.42 1564.53 455.12 1552.18 472.82 1541.47 490.52 1533.88 508.22 1530.44 525.92 1531.63 543.62 1537.28 561.32 1546.62 579.02 1558.37 596.72 1570.92 614.41 1582.54 632.11 1591.65 649.81 1597 667.51 1597.86 685.21 1594.1 702.91 1586.24 720.61 1575.36 738.31 1562.95 756.01 1550.71 773.71 1540.32 791.41 1533.2 809.11 1530.33 826.81 1532.1 844.5 1538.27 862.2 1547.99 879.9 1559.93 897.6 1547.74 901.71 1535.55 903.19 1523.37 901.87 1511.18 897.91 1498.99 891.78 1486.8 884.23 1474.62 876.17 1462.43 868.57 1450.24 862.35 1438.05 858.26 1425.87 856.8 1413.68 858.14 1401.49 862.12 1389.3 868.26 1377.11 875.82 1364.93 883.89 1352.74 891.48 1340.55 897.69 1328.36 901.75 1316.18 903.19 1303.99 901.83 1291.8 897.83 1279.61 891.67 1267.42 884.11 1255.24 876.04 1243.05 868.45 1230.86 862.26 1218.67 858.21 1206.49 856.8 1194.3 858.18 1182.11 862.2 1169.92 868.37 1157.73 875.95 1145.55 884.01 1133.36 891.59 1121.17 897.77 1108.98 901.8 1096.8 903.19 1084.61 901.79 1072.42 897.75 1060.23 891.56 1048.05 883.98 1035.86 875.91 1023.67 868.34 1011.48 862.18 999.29 858.17 987.11 856.8 974.92 858.22 962.73 862.28 950.54 868.48 938.36 876.08 926.17 884.14 913.98 891.7 901.79 897.85 889.6 901.84 877.42 903.19 865.23 901.74 853.04 897.66 840.85 891.45 828.67 883.85 816.48 875.79 804.29 868.23 792.1 862.1 779.91 858.13 767.73 856.8 755.54 858.27 743.35 862.37 731.16 868.6 718.98 876.2 706.79 884.27 694.6 891.81 682.41 897.93 670.23 901.89 658.04 903.19 645.85 901.7 633.66 897.58 621.47 891.34 609.29 883.72 597.1 875.66 584.91 868.12 572.72 862.02 560.54 858.08 548.35 856.8 536.16 858.32 523.97 862.45 511.78 868.71 499.6 876.33 487.41 884.39 475.22 891.93 463.03 898.02 450.85 901.93 438.66 903.19 426.47 901.65 414.28 897.5 402.1 891.22 389.91 883.6 377.72 875.53 365.53 868.01 353.34 861.93 341.16 858.04 328.97 856.8 316.78 858.36 304.59 862.54 292.41 868.82 280.22 876.46 268.03 884.52 255.84 892.04 243.65 898.1 231.47 901.97 219.28 903.19 207.09 901.6 194.9 897.41 182.72 891.11 170.53 883.47 158.34 875.41 146.15 867.9 133.96 861.85 121.78 858 109.59 856.8 97.4 858.41 85.21 862.62 73.03 868.94 60.84 876.59 48.65 884.65 36.46 892.15 24.28 898.18 6.74 897.52 2.76 882.89 3.97 872.74 4.96 862.59 5.67 852.44 6.08 842.29 6.31 827.06 6.92 822 18.82 814.27 30.63 803.98 42.39 791.65 54.12 778.06 65.83 764.15 77.56 750.89 89.31 739.15 101.12 729.6 112.98 722.64 124.93 718.35 136.97 716.44 149.1 716.36 161.33 717.3 173.66 718.36 186.08 718.62 198.6 717.27 211.21 713.7 223.89 707.59 236.62 698.96 249.41 688.13 262.22 675.69 275.05 662.43 287.87 649.25 300.67 637.01 313.44 626.46 326.14 618.12 338.78 612.24 351.35 608.74 363.82 607.25 376.2 607.17 388.48 607.69 400.66 607.97 412.74 607.18 424.73 604.65 436.64 599.92 448.48 592.84 460.26 583.52 472.01 572.38 483.73 560.04 495.46 547.29 507.21 534.95 519.01 523.77 530.88 514.37 542.83 507.12 554.9 502.13 567.1 499.2 579.44 497.92 591.95 497.62 604.63 497.56 617.49 496.96 630.53 495.1 643.76 491.46 657.16 485.72 670.73 477.85 684.46 468.06 698.32 456.83 712.3 444.8 726.37 432.7 740.5 421.26 754.67 411.14 768.83 402.81 782.95 396.49 797.01 392.19 810.95 389.63 821.1 392.12 831.25 395.12 841.39 398.28 851.53 401.28 861.68 403.79 871.81 405.52 881.95 406.25 892.08 405.82 902.21 404.18 912.34 401.36 922.45 397.49 932.56 392.75 942.67 387.44 952.77 381.85 962.86 376.32 972.94 371.18 983.01 366.72 993.07 363.19 1003.12 360.76 1013.16 359.52 1023.19 359.46 1033.21 360.49 1043.21 362.44 1053.2 365.05 1063.18 368.03 1073.14 371.06 1083.09 373.8 1093.02 375.96 1102.93 377.26 1112.83 377.53 1122.72 376.65 1132.58 374.58 1142.43 371.4 1152.26 367.26 1162.07 362.37 1171.86 357.03 1181.63 351.54 1191.38 346.23 1201.11 341.41 1210.82 337.35 1220.51 334.27 1230.18 332.29 1239.82 331.49 1249.45 331.81 1259.05 333.13 1268.63 335.26 1278.19 337.94 1287.72 340.86 1297.24 343.7 1306.72 346.16 1316.19 347.94 1325.63 348.82 1335.05 348.63 1344.45 347.31 1353.82 344.85 1363.17 341.35 1372.49 336.99 1381.8 332.01 1391.07 326.69 1400.33 321.34 1409.56 316.29 1418.77 311.82 1427.96 308.17 1437.12 305.53" fill="url(#uuunion-grad3)" filter="url(#uuunion-blur2)"></path></svg>