<svg xmlns="http://www.w3.org/2000/svg" xmlns:xlink="http://www.w3.org/1999/xlink" width="1920" zoomAndPan="magnify" viewBox="0 0 1440 809.999993" height="1080" preserveAspectRatio="xMidYMid meet" version="1.0"><defs><clipPath id="ba92c490fa"><path d="M 0 593.609375 L 271.542969 593.609375 L 271.542969 810 L 0 810 Z M 0 593.609375 " clip-rule="nonzero"/></clipPath><clipPath id="1b70f0bfb3"><path d="M 69.042969 593.609375 C -42.792969 593.609375 -133.457031 684.273438 -133.457031 796.109375 C -133.457031 907.945312 -42.792969 998.609375 69.042969 998.609375 C 180.882812 998.609375 271.542969 907.945312 271.542969 796.109375 C 271.542969 684.273438 180.882812 593.609375 69.042969 593.609375 Z M 69.042969 593.609375 " clip-rule="nonzero"/></clipPath><clipPath id="210f5d77ba"><path d="M 0 0 L 342.097656 0 L 342.097656 258.902344 L 0 258.902344 Z M 0 0 " clip-rule="nonzero"/></clipPath><clipPath id="2dc1108779"><path d="M 21.980469 -120.492188 L 282.816406 -120.492188 C 315.554688 -120.492188 342.097656 -93.949219 342.097656 -61.210938 L 342.097656 199.625 C 342.097656 232.363281 315.554688 258.902344 282.816406 258.902344 L 21.980469 258.902344 C -10.757812 258.902344 -37.296875 232.363281 -37.296875 199.625 L -37.296875 -61.210938 C -37.296875 -93.949219 -10.757812 -120.492188 21.980469 -120.492188 Z M 21.980469 -120.492188 " clip-rule="nonzero"/></clipPath><clipPath id="717e2b9b67"><path d="M 1155 541 L 1414 541 L 1414 799 L 1155 799 Z M 1155 541 " clip-rule="nonzero"/></clipPath><clipPath id="f456fa6844"><path d="M 1284.816406 482.394531 L 1472.554688 670.132812 L 1284.816406 857.867188 L 1097.082031 670.132812 Z M 1284.816406 482.394531 " clip-rule="nonzero"/></clipPath><clipPath id="6480867394"><path d="M 1284.816406 482.394531 L 1472.398438 669.972656 L 1284.816406 857.554688 L 1097.238281 669.972656 Z M 1284.816406 482.394531 " clip-rule="nonzero"/></clipPath><clipPath id="80887437e3"><path d="M 1413.777344 611.355469 L 1343.4375 541.011719 L 1284.816406 599.632812 L 1226.199219 541.011719 L 1155.855469 611.355469 L 1214.476562 669.972656 L 1155.855469 728.59375 L 1226.199219 798.933594 L 1284.816406 740.316406 L 1343.4375 798.933594 L 1413.777344 728.59375 L 1355.160156 669.972656 Z M 1413.777344 611.355469 " clip-rule="nonzero"/></clipPath></defs><rect x="-144" width="1728" fill="#ffffff" y="-80.999999" height="971.999992" fill-opacity="1"/><rect x="-144" width="1728" fill="#0b253c" y="-80.999999" height="971.999992" fill-opacity="1"/><g clip-path="url(#ba92c490fa)"><g clip-path="url(#1b70f0bfb3)"><path fill="#6d839f" d="M 0.820312 616.582031 C -17.898438 623.699219 -35.113281 633.542969 -50.824219 646.113281 L -63.945312 629.71875 C -46.519531 615.773438 -27.417969 604.851562 -6.640625 596.953125 Z M -58.4375 652.535156 C -73.464844 665.890625 -86.085938 681.195312 -96.304688 698.457031 L -114.375 687.757812 C -103.042969 668.617188 -89.046875 651.644531 -72.386719 636.839844 Z M -101.152344 707.15625 C -110.464844 724.9375 -116.8125 743.714844 -120.199219 763.488281 L -140.898438 759.949219 C -137.140625 737.996094 -130.09375 717.148438 -119.753906 697.410156 Z M -121.621094 773.359375 C -122.511719 780.890625 -122.957031 788.472656 -122.957031 796.109375 C -122.957031 808.542969 -121.78125 820.808594 -119.4375 832.902344 L -140.050781 836.902344 C -142.652344 823.484375 -143.957031 809.890625 -143.957031 796.109375 C -143.957031 787.648438 -143.464844 779.246094 -142.476562 770.898438 Z M -117.28125 842.636719 C -112.441406 862.085938 -104.710938 880.339844 -94.09375 897.40625 L -111.921875 908.503906 C -123.707031 889.5625 -132.289062 869.296875 -137.660156 847.707031 Z M -88.617188 905.71875 C -77.140625 922.191406 -63.425781 936.527344 -47.46875 948.730469 L -60.222656 965.414062 C -77.914062 951.882812 -93.125 935.988281 -105.847656 917.71875 Z M -39.398438 954.574219 C -22.808594 965.949219 -4.914062 974.488281 14.292969 980.191406 L 8.316406 1000.324219 C -13.003906 993.992188 -32.867188 984.515625 -51.273438 971.894531 Z M 23.890625 982.773438 C 38.65625 986.332031 53.707031 988.109375 69.042969 988.109375 C 73.816406 988.109375 78.570312 987.9375 83.308594 987.589844 L 84.84375 1008.53125 C 79.597656 1008.917969 74.328125 1009.109375 69.042969 1009.109375 C 52.042969 1009.109375 35.351562 1007.136719 18.972656 1003.1875 Z M 93.207031 986.605469 C 113.140625 984.101562 132.1875 978.601562 150.351562 970.097656 L 159.253906 989.117188 C 139.089844 998.554688 117.945312 1004.664062 95.824219 1007.441406 Z M 159.246094 965.648438 C 176.9375 956.214844 192.789062 944.28125 206.800781 929.851562 L 221.867188 944.480469 C 206.328125 960.484375 188.75 973.714844 169.125 984.179688 Z M 213.554688 922.53125 C 226.808594 907.390625 237.414062 890.625 245.367188 872.230469 L 264.640625 880.566406 C 255.820312 900.972656 244.054688 919.570312 229.355469 936.363281 Z M 249.070312 863.011719 C 256.042969 844.261719 259.96875 824.828125 260.855469 804.710938 L 281.835938 805.636719 C 280.851562 827.953125 276.492188 849.515625 268.753906 870.328125 Z M 261.039062 794.679688 C 260.890625 774.503906 257.691406 754.925781 251.429688 735.941406 L 271.375 729.367188 C 278.320312 750.433594 281.875 772.15625 282.039062 794.527344 Z M 248.066406 726.570312 C 240.808594 707.898438 230.839844 690.757812 218.152344 675.140625 L 234.453125 661.902344 C 248.523438 679.222656 259.585938 698.242188 267.640625 718.960938 Z M 211.675781 667.574219 C 198.210938 652.644531 182.8125 640.132812 165.476562 630.042969 L 176.039062 611.894531 C 195.265625 623.082031 212.339844 636.953125 227.269531 653.511719 Z M 156.746094 625.261719 C 138.898438 616.082031 120.074219 609.871094 100.273438 606.636719 L 103.660156 585.910156 C 125.644531 589.503906 146.542969 596.398438 166.351562 606.589844 Z M 90.382812 605.28125 C 83.316406 604.5 76.203125 604.109375 69.042969 604.109375 C 48.859375 604.109375 29.253906 607.167969 10.226562 613.28125 L 3.800781 593.289062 C 24.917969 586.503906 46.664062 583.109375 69.042969 583.109375 C 76.972656 583.109375 84.855469 583.542969 92.6875 584.40625 Z M 90.382812 605.28125 " fill-opacity="1" fill-rule="nonzero"/></g></g><g clip-path="url(#210f5d77ba)"><g clip-path="url(#2dc1108779)"><path fill="#6d839f" d="M 69.230469 -127.242188 L 109.730469 -127.242188 L 109.730469 -113.742188 L 69.230469 -113.742188 Z M 116.480469 -127.242188 L 156.980469 -127.242188 L 156.980469 -113.742188 L 116.480469 -113.742188 Z M 163.730469 -127.242188 L 204.230469 -127.242188 L 204.230469 -113.742188 L 163.730469 -113.742188 Z M 210.980469 -127.242188 L 251.480469 -127.242188 L 251.480469 -113.742188 L 210.980469 -113.742188 Z M 258.230469 -127.242188 L 282.816406 -127.242188 C 288.800781 -127.242188 294.652344 -126.453125 300.375 -124.878906 L 296.792969 -111.863281 C 292.242188 -113.113281 287.585938 -113.742188 282.816406 -113.742188 L 258.230469 -113.742188 Z M 307.488281 -122.472656 C 322 -116.625 333.050781 -106.839844 340.636719 -93.121094 L 328.820312 -86.589844 C 322.78125 -97.511719 313.988281 -105.300781 302.441406 -109.953125 Z M 343.902344 -86.324219 C 347.199219 -78.3125 348.847656 -69.941406 348.847656 -61.210938 L 348.847656 -43.804688 L 335.347656 -43.804688 L 335.347656 -61.210938 C 335.347656 -68.160156 334.035156 -74.820312 331.417969 -81.1875 Z M 348.847656 -37.054688 L 348.847656 3.445312 L 335.347656 3.445312 L 335.347656 -37.054688 Z M 348.847656 10.195312 L 348.847656 50.695312 L 335.347656 50.695312 L 335.347656 10.195312 Z M 348.847656 57.445312 L 348.847656 97.945312 L 335.347656 97.945312 L 335.347656 57.445312 Z M 348.847656 104.695312 L 348.847656 145.195312 L 335.347656 145.195312 L 335.347656 104.695312 Z M 348.847656 151.945312 L 348.847656 192.445312 L 335.347656 192.445312 L 335.347656 151.945312 Z M 348.847656 199.195312 L 348.847656 199.625 C 348.847656 215.132812 343.996094 228.917969 334.292969 240.980469 L 323.773438 232.519531 C 331.488281 222.929688 335.347656 211.960938 335.347656 199.625 L 335.347656 199.195312 Z M 329.257812 246.5625 C 318.09375 257.605469 304.722656 263.871094 289.144531 265.355469 L 287.863281 251.914062 C 300.25 250.734375 310.882812 245.753906 319.761719 236.964844 Z M 281.757812 265.652344 L 241.257812 265.652344 L 241.257812 252.152344 L 281.757812 252.152344 Z M 234.507812 265.652344 L 194.007812 265.652344 L 194.007812 252.152344 L 234.507812 252.152344 Z M 187.257812 265.652344 L 146.757812 265.652344 L 146.757812 252.152344 L 187.257812 252.152344 Z M 140.007812 265.652344 L 99.507812 265.652344 L 99.507812 252.152344 L 140.007812 252.152344 Z M 92.757812 265.652344 L 52.257812 265.652344 L 52.257812 252.152344 L 92.757812 252.152344 Z M 45.507812 265.652344 L 21.980469 265.652344 C 15.59375 265.652344 9.359375 264.757812 3.28125 262.964844 L 7.097656 250.019531 C 11.929688 251.441406 16.890625 252.152344 21.980469 252.152344 L 45.507812 252.152344 Z M -3.777344 260.4375 C -18.1875 254.328125 -29.0625 244.347656 -36.402344 230.496094 L -24.472656 224.175781 C -18.628906 235.203125 -9.972656 243.148438 1.496094 248.011719 Z M -39.539062 223.648438 C -42.546875 215.957031 -44.046875 207.949219 -44.046875 199.625 L -44.046875 181.160156 L -30.546875 181.160156 L -30.546875 199.625 C -30.546875 206.253906 -29.355469 212.621094 -26.964844 218.734375 Z M -44.046875 174.410156 L -44.046875 133.910156 L -30.546875 133.910156 L -30.546875 174.410156 Z M -44.046875 127.160156 L -44.046875 86.660156 L -30.546875 86.660156 L -30.546875 127.160156 Z M -44.046875 79.910156 L -44.046875 39.410156 L -30.546875 39.410156 L -30.546875 79.910156 Z M -44.046875 32.660156 L -44.046875 -7.839844 L -30.546875 -7.839844 L -30.546875 32.660156 Z M -44.046875 -14.589844 L -44.046875 -55.089844 L -30.546875 -55.089844 L -30.546875 -14.589844 Z M -44.042969 -61.917969 C -43.878906 -77.597656 -38.78125 -91.453125 -28.746094 -103.480469 L -18.378906 -94.835938 C -26.359375 -85.269531 -30.414062 -74.25 -30.546875 -61.777344 Z M -23.613281 -108.972656 C -12.261719 -119.808594 1.214844 -125.832031 16.820312 -127.042969 L 17.863281 -113.582031 C 5.457031 -112.621094 -5.261719 -107.832031 -14.289062 -99.207031 Z M 21.980469 -127.242188 L 62.480469 -127.242188 L 62.480469 -113.742188 L 21.980469 -113.742188 Z M 21.980469 -127.242188 " fill-opacity="1" fill-rule="nonzero"/></g></g><g clip-path="url(#717e2b9b67)"><g clip-path="url(#f456fa6844)"><g clip-path="url(#6480867394)"><g clip-path="url(#80887437e3)"><path fill="#6d839f" d="M 1384.609375 593.855469 L 1367.109375 576.355469 L 1378.777344 564.6875 L 1396.277344 582.1875 Z M 1361.277344 570.519531 L 1343.777344 553.019531 L 1355.441406 541.351562 L 1372.945312 558.851562 Z M 1337.941406 547.1875 L 1337.601562 546.847656 L 1343.4375 541.011719 L 1349.269531 546.847656 L 1332.109375 564.007812 L 1320.441406 552.34375 L 1343.4375 529.347656 L 1349.609375 535.519531 Z M 1326.273438 569.84375 L 1308.773438 587.34375 L 1297.105469 575.675781 L 1314.605469 558.175781 Z M 1302.941406 593.175781 L 1284.816406 611.300781 L 1273.773438 600.253906 L 1285.4375 588.585938 L 1290.652344 593.796875 L 1284.816406 599.632812 L 1278.984375 593.796875 L 1291.273438 581.511719 Z M 1267.9375 594.417969 L 1250.4375 576.917969 L 1262.105469 565.25 L 1279.605469 582.753906 Z M 1244.605469 571.085938 L 1227.101562 553.585938 L 1238.769531 541.917969 L 1256.269531 559.417969 Z M 1221.269531 547.75 L 1220.367188 546.847656 L 1226.199219 541.011719 L 1232.035156 546.847656 L 1215.4375 563.445312 L 1203.769531 551.777344 L 1226.199219 529.347656 L 1232.9375 536.082031 Z M 1209.601562 569.277344 L 1192.101562 586.78125 L 1180.433594 575.113281 L 1197.933594 557.609375 Z M 1186.265625 592.613281 L 1168.765625 610.113281 L 1157.097656 598.445312 L 1174.601562 580.945312 Z M 1162.933594 615.949219 L 1161.691406 617.1875 L 1155.859375 611.355469 L 1161.691406 605.523438 L 1177.949219 621.78125 L 1166.28125 633.449219 L 1144.191406 611.355469 L 1151.265625 604.28125 Z M 1183.785156 627.613281 L 1201.285156 645.117188 L 1189.617188 656.78125 L 1172.117188 639.28125 Z M 1207.117188 650.949219 L 1226.144531 669.972656 L 1216 680.117188 L 1204.332031 668.449219 L 1208.640625 664.140625 L 1214.476562 669.972656 L 1208.640625 675.808594 L 1195.449219 662.617188 Z M 1210.167969 685.949219 L 1192.664062 703.453125 L 1181 691.785156 L 1198.5 674.285156 Z M 1186.832031 709.285156 L 1169.332031 726.785156 L 1157.664062 715.121094 L 1175.164062 697.617188 Z M 1163.496094 732.621094 L 1161.691406 734.425781 L 1155.859375 728.59375 L 1161.691406 722.757812 L 1177.386719 738.453125 L 1165.71875 750.121094 L 1144.191406 728.59375 L 1151.832031 720.953125 Z M 1183.21875 744.289062 L 1200.71875 761.789062 L 1189.054688 773.457031 L 1171.550781 755.953125 Z M 1206.554688 767.621094 L 1224.054688 785.121094 L 1212.386719 796.789062 L 1194.886719 779.289062 Z M 1229.886719 790.957031 L 1232.035156 793.101562 L 1226.199219 798.933594 L 1220.367188 793.101562 L 1235.722656 777.746094 L 1247.390625 789.414062 L 1226.199219 810.601562 L 1218.222656 802.625 Z M 1241.554688 771.914062 L 1259.054688 754.410156 L 1270.722656 766.078125 L 1253.222656 783.578125 Z M 1264.890625 748.578125 L 1284.816406 728.648438 L 1294.058594 737.890625 L 1282.390625 749.554688 L 1278.984375 746.148438 L 1284.816406 740.316406 L 1290.652344 746.148438 L 1276.558594 760.246094 Z M 1299.890625 743.722656 L 1317.394531 761.222656 L 1305.726562 772.890625 L 1288.222656 755.390625 Z M 1323.226562 767.058594 L 1340.726562 784.558594 L 1329.058594 796.226562 L 1311.558594 778.726562 Z M 1346.5625 790.390625 L 1349.269531 793.101562 L 1343.4375 798.933594 L 1337.601562 793.101562 L 1352.394531 778.308594 L 1364.0625 789.976562 L 1343.4375 810.601562 L 1334.894531 802.058594 Z M 1358.226562 772.476562 L 1375.730469 754.976562 L 1387.394531 766.644531 L 1369.894531 784.144531 Z M 1381.5625 749.140625 L 1399.0625 731.640625 L 1410.730469 743.308594 L 1393.230469 760.808594 Z M 1404.898438 725.808594 L 1407.945312 722.757812 L 1413.777344 728.59375 L 1407.945312 734.425781 L 1393.492188 719.972656 L 1405.160156 708.308594 L 1425.445312 728.59375 L 1416.5625 737.476562 Z M 1387.660156 714.140625 L 1370.160156 696.640625 L 1381.824219 684.972656 L 1399.328125 702.472656 Z M 1364.324219 690.804688 L 1343.492188 669.972656 L 1351.828125 661.636719 L 1363.496094 673.304688 L 1360.996094 675.808594 L 1355.160156 669.972656 L 1360.996094 664.140625 L 1375.992188 679.136719 Z M 1357.664062 655.804688 L 1375.164062 638.304688 L 1386.832031 649.96875 L 1369.332031 667.472656 Z M 1381 632.46875 L 1398.5 614.96875 L 1410.167969 626.636719 L 1392.664062 644.136719 Z M 1404.332031 609.136719 L 1407.945312 605.523438 L 1413.777344 611.355469 L 1407.945312 617.1875 L 1390.445312 599.6875 L 1402.113281 588.019531 L 1425.445312 611.355469 L 1416 620.800781 Z M 1404.332031 609.136719 " fill-opacity="1" fill-rule="nonzero"/></g></g></g></g></svg>