<svg xmlns="http://www.w3.org/2000/svg" version="1.1" xmlns:xlink="http://www.w3.org/1999/xlink" xmlns:svgjs="http://svgjs.dev/svgjs" viewBox="0 0 1422 800"><defs><linearGradient x1="50%" y1="0%" x2="50%" y2="100%" id="oooscillate-grad"><stop stop-color="hsl(206, 75%, 49%)" stop-opacity="1" offset="0%"></stop><stop stop-color="#00C6B8" stop-opacity="1" offset="100%"></stop></linearGradient></defs><g stroke-width="1.5" stroke="url(#oooscillate-grad)" fill="none" stroke-linecap="round"><path d="M 0 1943 Q 355.5 -100 711 400 Q 1066.5 900 1422 1943" opacity="1.00"></path><path d="M 0 1876 Q 355.5 -100 711 400 Q 1066.5 900 1422 1876" opacity="0.97"></path><path d="M 0 1809 Q 355.5 -100 711 400 Q 1066.5 900 1422 1809" opacity="0.93"></path><path d="M 0 1742 Q 355.5 -100 711 400 Q 1066.5 900 1422 1742" opacity="0.90"></path><path d="M 0 1675 Q 355.5 -100 711 400 Q 1066.5 900 1422 1675" opacity="0.86"></path><path d="M 0 1608 Q 355.5 -100 711 400 Q 1066.5 900 1422 1608" opacity="0.83"></path><path d="M 0 1541 Q 355.5 -100 711 400 Q 1066.5 900 1422 1541" opacity="0.80"></path><path d="M 0 1474 Q 355.5 -100 711 400 Q 1066.5 900 1422 1474" opacity="0.76"></path><path d="M 0 1407 Q 355.5 -100 711 400 Q 1066.5 900 1422 1407" opacity="0.73"></path><path d="M 0 1340 Q 355.5 -100 711 400 Q 1066.5 900 1422 1340" opacity="0.69"></path><path d="M 0 1273 Q 355.5 -100 711 400 Q 1066.5 900 1422 1273" opacity="0.66"></path><path d="M 0 1206 Q 355.5 -100 711 400 Q 1066.5 900 1422 1206" opacity="0.63"></path><path d="M 0 1139 Q 355.5 -100 711 400 Q 1066.5 900 1422 1139" opacity="0.59"></path><path d="M 0 1072 Q 355.5 -100 711 400 Q 1066.5 900 1422 1072" opacity="0.56"></path><path d="M 0 1005 Q 355.5 -100 711 400 Q 1066.5 900 1422 1005" opacity="0.53"></path><path d="M 0 938 Q 355.5 -100 711 400 Q 1066.5 900 1422 938" opacity="0.49"></path><path d="M 0 871 Q 355.5 -100 711 400 Q 1066.5 900 1422 871" opacity="0.46"></path><path d="M 0 804 Q 355.5 -100 711 400 Q 1066.5 900 1422 804" opacity="0.42"></path><path d="M 0 737 Q 355.5 -100 711 400 Q 1066.5 900 1422 737" opacity="0.39"></path><path d="M 0 670 Q 355.5 -100 711 400 Q 1066.5 900 1422 670" opacity="0.36"></path><path d="M 0 603 Q 355.5 -100 711 400 Q 1066.5 900 1422 603" opacity="0.32"></path><path d="M 0 536 Q 355.5 -100 711 400 Q 1066.5 900 1422 536" opacity="0.29"></path><path d="M 0 469 Q 355.5 -100 711 400 Q 1066.5 900 1422 469" opacity="0.25"></path><path d="M 0 402 Q 355.5 -100 711 400 Q 1066.5 900 1422 402" opacity="0.22"></path><path d="M 0 335 Q 355.5 -100 711 400 Q 1066.5 900 1422 335" opacity="0.19"></path><path d="M 0 268 Q 355.5 -100 711 400 Q 1066.5 900 1422 268" opacity="0.15"></path><path d="M 0 201 Q 355.5 -100 711 400 Q 1066.5 900 1422 201" opacity="0.12"></path><path d="M 0 134 Q 355.5 -100 711 400 Q 1066.5 900 1422 134" opacity="0.08"></path></g></svg>