<svg xmlns="http://www.w3.org/2000/svg" version="1.1" xmlns:xlink="http://www.w3.org/1999/xlink" xmlns:svgjs="http://svgjs.dev/svgjs" viewBox="0 0 1422 800"><defs><filter id="uuunion-blur" x="-100%" y="-100%" width="400%" height="400%" color-interpolation-filters="sRGB">
        <feGaussianBlur in="SourceGraphic" stdDeviation="7.5 7.5" result="blur"></feGaussianBlur>
        <feDropShadow stdDeviation="12.307692307692308" in="blur" dx="10" dy="10" flood-color="#0c1821" flood-opacity="0.25" x="0%" y="0%" width="100%" height="100%"></feDropShadow>
      </filter><filter id="uuunion-blur2" x="-100%" y="-100%" width="400%" height="400%" color-interpolation-filters="sRGB">
        <feGaussianBlur in="SourceGraphic" stdDeviation="7.5 7.5" result="blur"></feGaussianBlur>
        <feDropShadow stdDeviation="12.307692307692308" in="blur" dx="-10" dy="-10" flood-color="#0c1821" flood-opacity="0.25" x="0%" y="0%" width="100%" height="100%"></feDropShadow>
      </filter><linearGradient gradientTransform="rotate(0, 0.5, 0.5)" x1="50%" y1="0%" x2="50%" y2="100%" id="uuunion-grad"><stop stop-color="hsl(191, 87%, 17%)" offset="10%"></stop><stop stop-color="#0c1821" offset="90%"></stop></linearGradient><linearGradient gradientTransform="rotate(135, 0.5, 0.5)" x1="50%" y1="0%" x2="50%" y2="100%" id="uuunion-grad2"><stop stop-color="hsl(191, 87%, 17%)" offset="25%"></stop><stop stop-color="#0c1821" offset="100%"></stop></linearGradient><linearGradient gradientTransform="rotate(333, 0.5, 0.5)" x1="50%" y1="0%" x2="50%" y2="100%" id="uuunion-grad3"><stop stop-color="hsl(191, 87%, 17%)" offset="0%"></stop><stop stop-color="#0c1821" offset="75%"></stop></linearGradient></defs><path d="M-131.31 -88.65Q-118.33 -87.89 -105.35 -86.52 -92.36 -84.66 -79.38 -82.43 -66.4 -80.02 -53.42 -77.61 -40.44 -75.38 -27.45 -73.5 -14.47 -72.12 -1.49 -71.35 11.48 -71.23 24.46 -71.79 37.44 -72.98 50.43 -74.71 63.41 -76.84 76.39 -79.21 89.37 -81.64 102.35 -83.95 115.34 -85.95 128.32 -87.5 141.3 -88.47 154.28 -88.79 167.26 -88.44 180.24 -87.44 193.23 -85.87 206.21 -83.85 219.19 -81.54 232.17 -79.1 245.15 -76.73 258.14 -74.62 271.12 -72.91 284.1 -71.75 297.08 -71.22 310.06 -71.37 323.04 -72.17 336.03 -73.57 349.01 -75.47 361.99 -77.71 374.97 -80.13 387.95 -82.54 400.94 -84.75 413.92 -86.6 426.9 -87.94 439.88 -88.67 452.86 -88.74 465.85 -88.14 478.83 -86.91 491.81 -85.16 504.79 -83 517.77 -80.62 530.75 -78.19 543.74 -75.9 556.72 -73.92 569.7 -72.41 582.68 -71.48 595.66 -71.2 608.65 -71.59 621.63 -72.63 634.61 -74.24 647.59 -76.28 660.57 -78.61 673.56 -81.05 686.54 -83.4 699.52 -85.5 712.5 -87.17 725.48 -88.29 738.46 -88.78 751.45 -88.59 764.43 -87.75 777.41 -86.31 790.39 -84.38 803.37 -82.12 816.36 -79.7 829.34 -77.3 842.32 -75.11 855.3 -73.29 868.28 -71.98 881.27 -71.29 894.25 -71.27 907.23 -71.91 920.21 -73.18 933.19 -74.96 946.18 -77.14 959.16 -79.53 972.14 -81.95 985.12 -84.23 998.1 -86.18 1011.08 -87.66 1024.07 -88.55 1037.05 -88.79 1050.03 -88.35 1063.01 -87.27 1075.99 -85.63 1088.98 -83.56 1101.96 -81.22 1114.94 -78.78 1127.92 -76.44 1140.9 -74.37 1153.89 -72.73 1166.87 -71.65 1179.85 -71.2 1192.83 -71.43 1205.81 -72.32 1218.8 -73.8 1231.78 -75.75 1244.76 -78.02 1257.74 -80.45 1270.72 -82.84 1283.71 -85.01 1296.69 -86.8 1309.67 -88.07 1322.65 -88.72 1335.63 -88.7 1348.61 -88.01 1361.6 -86.71 1374.58 -84.89 1387.56 -82.7 1400.54 -80.3 1413.52 -77.88 1426.51 -75.62 1439.49 -73.69 1452.47 -72.25 1465.45 -71.4 1478.43 -71.21 1491.42 -71.69 1504.4 -72.81 1517.38 -74.48 1530.36 -76.57 1532.29 -61.49 1536.75 -46.4 1543.4 -31.31 1551.71 -16.22 1561 -1.14 1570.55 13.94 1579.6 29.03 1587.42 44.12 1593.39 59.2 1597.04 74.29 1598.07 89.38 1596.41 104.47 1592.19 119.55 1585.74 134.64 1577.57 149.73 1568.34 164.81 1558.78 179.9 1549.66 194.99 1541.68 210.08 1535.5 225.16 1531.6 240.25 1530.3 255.34 1531.69 270.43 1535.67 285.51 1541.92 300.6 1549.94 315.69 1559.09 330.78 1568.65 345.86 1577.86 360.95 1585.98 376.04 1592.36 391.13 1596.51 406.21 1598.08 421.3 1596.96 436.39 1593.23 451.48 1587.19 466.56 1579.32 481.65 1570.25 496.74 1560.69 511.83 1551.42 526.91 1543.16 542 1536.57 557.09 1532.18 572.18 1530.34 587.26 1531.2 602.35 1534.68 617.44 1540.5 632.53 1548.22 647.61 1557.2 662.7 1566.74 677.79 1576.08 692.88 1584.47 707.96 1591.25 723.05 1595.88 738.14 1597.98 753.23 1597.4 768.31 1594.17 783.4 1588.57 798.49 1581.02 813.58 1572.13 828.66 1562.61 843.75 1553.22 858.84 1544.7 873.93 1537.73 889.01 1524.67 894.53 1511.62 898.93 1498.56 901.88 1485.5 903.15 1472.44 902.65 1459.38 900.41 1446.33 896.61 1433.27 891.53 1420.21 885.57 1407.15 879.18 1394.09 872.86 1381.04 867.08 1367.98 862.29 1354.92 858.86 1341.86 857.05 1328.8 856.99 1315.74 858.7 1302.69 862.04 1289.63 866.76 1276.57 872.49 1263.51 878.8 1250.45 885.2 1237.4 891.2 1224.34 896.34 1211.28 900.23 1198.22 902.56 1185.16 903.17 1172.11 902 1159.05 899.15 1145.99 894.83 1132.93 889.37 1119.87 883.19 1106.82 876.77 1093.76 870.59 1080.7 865.14 1067.64 860.82 1054.58 857.97 1041.53 856.82 1028.47 857.43 1015.41 859.78 1002.35 863.68 989.29 868.82 976.24 874.83 963.18 881.23 950.12 887.53 937.06 893.26 924 897.97 910.95 901.3 897.89 903 884.83 902.94 871.77 901.12 858.71 897.68 845.66 892.88 832.6 887.1 819.54 880.77 806.48 874.38 793.43 868.43 780.37 863.36 767.31 859.56 754.25 857.33 741.19 856.84 728.14 858.12 715.08 861.08 702.02 865.49 688.96 871.01 675.9 877.22 662.85 883.64 649.79 889.78 636.73 895.18 623.67 899.4 610.61 902.14 597.56 903.19 584.5 902.45 571.44 900 558.38 896.01 545.32 890.79 532.27 884.75 519.21 878.34 506.15 872.06 493.09 866.39 480.03 861.76 466.98 858.52 453.92 856.94 440.86 857.12 427.8 859.05 414.74 862.59 401.69 867.46 388.63 873.29 375.57 879.64 362.51 886.01 349.45 891.93 336.4 896.92 323.34 900.63 310.28 902.74 297.22 903.12 284.16 901.72 271.11 898.66 258.05 894.17 244.99 888.59 231.93 882.35 218.88 875.93 205.82 869.83 192.76 864.5 179.7 860.36 166.64 857.72 153.59 856.8 140.53 857.64 127.47 860.21 114.41 864.29 101.35 869.57 88.3 875.65 75.24 882.07 62.18 888.32 49.12 893.94 36.06 898.49 23.01 901.62 9.95 903.1 -3.1 902.8 -16.16 900.76 -29.21 897.12 -42.27 892.17 -55.33 886.29 -68.39 879.93 -81.45 873.57 -94.5 867.7 -107.56 862.78 -120.62 859.18 -133.68 857.17 -135.92 842.39 -138.66 827.61 -141.68 812.83 -144.74 798.05 -147.59 783.27 -150.02 768.5 -151.82 753.72 -152.86 738.94 -153.05 724.16 -152.37 709.38 -150.88 694.6 -148.7 679.82 -146 665.05 -143 650.27 -139.94 635.49 -137.05 620.71 -134.57 605.93 -132.7 591.15 -131.58 576.37 -131.3 561.59 -131.9 546.82 -133.31 532.04 -135.42 517.26 -138.08 502.48 -141.06 487.7 -144.13 472.92 -147.05 458.14 -149.58 443.37 -151.52 428.59 -152.72 413.81 -153.08 399.03 -152.57 384.25 -151.24 369.47 -149.19 354.69 -146.58 339.92 -143.62 325.14 -140.54 310.36 -137.6 295.58 -135.02 280.8 -133.02 266.02 -131.74 251.24 -131.29 236.47 -131.71 221.69 -132.96 206.91 -134.95 192.13 -137.51 177.35 -140.45 162.57 -143.52 147.79 -146.49 133.02 -149.11 118.24 -151.18 103.46 -152.54 88.68 -153.08 73.9 -152.74 59.12 -151.57 44.34 -149.65 29.56 -147.14 14.79 -144.23 0.01 -141.16 -14.76 -138.17 -29.54 -135.5 -44.32 -133.36 -59.1 -131.93 -73.88 -131.31 -88.65" fill="url(#uuunion-grad)"></path><path d="M-131.32 -88.65Q-131.94 -73.88 -133.37 -59.1 -135.51 -44.32 -138.18 -29.54 -141.17 -14.76 -144.24 0.01 -147.15 14.79 -149.66 29.56 -151.58 44.34 -152.75 59.12 -153.09 73.9 -152.55 88.68 -151.19 103.46 -149.12 118.24 -146.5 133.01 -143.53 147.79 -140.46 162.57 -137.52 177.35 -134.96 192.13 -132.97 206.91 -131.72 221.69 -131.3 236.46 -131.75 251.24 -133.02 266.02 -135.03 280.8 -137.61 295.58 -140.55 310.36 -143.63 325.14 -146.59 339.92 -149.2 354.69 -147.36 377.26 -134.36 386.35 -125.25 388.12 -116.14 390.3 -107.03 392.81 -97.92 395.56 -88.81 398.47 -79.7 401.43 -70.59 404.34 -61.48 407.1 -52.37 409.61 -43.26 411.8 -34.15 413.59 -25.04 414.91 -7.83 415.92 -4.78 415.98 6.71 412.23 18.22 407.68 29.74 402.39 41.27 396.49 52.79 390.13 64.31 383.48 75.83 376.73 87.33 370.09 98.82 363.72 110.3 357.8 121.76 352.48 133.2 347.87 144.62 344.05 156.01 341.04 167.37 338.84 178.71 337.39 190.02 336.6 201.3 336.34 212.54 336.45 223.75 336.76 234.93 337.1 246.07 337.26 257.18 337.09 268.25 336.42 279.29 335.13 290.3 333.13 301.27 330.35 312.22 326.8 323.13 322.48 334.01 317.48 344.87 311.9 355.7 305.86 366.5 299.54 377.29 293.09 388.06 286.7 398.81 280.54 409.55 274.76 420.27 269.52 430.99 264.91 441.7 261.01 452.42 257.85 463.13 255.44 473.85 253.73 484.57 252.65 495.31 252.07 506.06 251.86 516.83 251.86 527.62 251.91 538.43 251.84 549.27 251.48 560.14 250.69 571.04 249.35 581.98 247.38 592.96 244.7 603.97 241.31 615.03 237.22 626.13 232.49 637.27 227.21 648.47 221.49 659.71 215.48 671 209.34 682.34 203.21 693.73 197.27 705.18 191.66 716.67 186.51 728.22 181.92 739.82 177.97 751.47 174.7 763.16 172.1 774.91 170.16 786.69 168.79 798.53 167.9 810.4 167.37 822.31 167.07 834.26 166.83 846.25 166.5 858.26 165.94 870.3 165.01 882.36 163.61 894.45 161.63 906.55 159.03 918.66 155.78 930.77 151.89 942.89 147.41 955.01 142.42 967.12 137.01 979.22 131.32 991.3 125.47 1003.36 119.63 1015.4 113.92 1027.4 108.49 1039.37 103.46 1051.3 98.92 1063.19 94.94 1075.02 91.57 1086.8 88.82 1098.53 86.65 1110.19 85.02 1121.78 83.84 1133.31 83 1144.76 82.38 1156.13 81.85 1167.42 81.26 1178.64 80.49 1189.76 79.4 1200.8 77.9 1211.75 75.9 1222.61 73.34 1233.38 70.21 1244.06 66.5 1254.65 62.25 1265.14 57.53 1275.54 52.42 1285.85 47.04 1296.07 41.5 1306.2 35.94 1316.25 30.48 1326.21 25.25 1336.09 20.35 1345.89 15.88 1355.62 11.91 1365.28 8.47 1374.87 5.58 1384.4 3.22 1393.87 1.34 1403.29 -0.11 1412.66 -1.25 1422 -2.18 1412.22 -19.62 1403.49 -37.06 1396.77 -54.51 1392.77 -71.95 1391.93 -89.39 1394.34 -106.83 1399.73 -124.28 1407.53 -141.72 1395.37 -143.62 1383.22 -145.28 1371.06 -146.6 1358.9 -147.48 1346.74 -147.88 1334.59 -147.76 1322.43 -147.13 1310.27 -146.03 1298.11 -144.54 1285.96 -142.75 1273.8 -140.78 1261.64 -138.76 1249.48 -136.82 1237.33 -135.09 1225.17 -133.68 1213.01 -132.68 1200.85 -132.16 1188.7 -132.16 1176.54 -132.66 1164.38 -133.65 1152.22 -135.05 1140.07 -136.77 1127.91 -138.71 1115.75 -140.73 1103.59 -142.7 1091.44 -144.5 1079.28 -146 1067.12 -147.1 1054.96 -147.75 1042.81 -147.88 1030.65 -147.5 1018.49 -146.63 1006.33 -145.32 994.18 -143.67 982.02 -141.77 969.86 -139.76 957.7 -137.76 945.55 -135.91 933.39 -134.33 921.23 -133.12 909.07 -132.36 896.92 -132.1 884.76 -132.35 872.6 -133.1 860.44 -134.31 848.29 -135.89 836.13 -137.73 823.97 -139.73 811.81 -141.74 799.66 -143.64 787.5 -145.3 775.34 -146.61 763.18 -147.49 751.03 -147.88 738.87 -147.75 726.71 -147.12 714.55 -146.02 702.4 -144.52 690.24 -142.73 678.08 -140.76 665.92 -138.74 653.77 -136.8 641.61 -135.07 629.45 -133.67 617.29 -132.67 605.13 -132.16 592.98 -132.16 580.82 -132.67 568.66 -133.66 556.5 -135.07 544.35 -136.79 532.19 -138.73 520.03 -140.75 507.87 -142.72 495.72 -144.51 483.56 -146.01 471.4 -147.11 459.24 -147.75 447.09 -147.88 434.93 -147.49 422.77 -146.62 410.61 -145.31 398.46 -143.65 386.3 -141.75 374.14 -139.74 361.98 -137.74 349.83 -135.9 337.67 -134.32 325.51 -133.11 313.35 -132.35 301.2 -132.1 289.04 -132.35 276.88 -133.11 264.72 -134.32 252.57 -135.91 240.41 -137.75 228.25 -139.75 216.09 -141.76 203.94 -143.66 191.78 -145.31 179.62 -146.62 167.46 -147.5 155.31 -147.88 143.15 -147.75 130.99 -147.11 118.83 -146 106.68 -144.51 94.52 -142.71 82.36 -140.74 70.2 -138.72 58.05 -136.78 45.89 -135.06 33.73 -133.66 21.57 -132.67 9.42 -132.16 -2.73 -132.16 -14.89 -132.68 -27.05 -133.67 -39.2 -135.08 -51.36 -136.81 -63.52 -138.75 -75.68 -140.77 -87.83 -142.74 -99.99 -144.53 -112.15 -146.02 -124.31 -147.12 -139.83 -140.44 -138.42 -118.33 -134.44 -103.51 -131.32 -88.65" fill="url(#uuunion-grad2)" filter="url(#uuunion-blur)"></path><path d="M1414.67 316.76Q1423.5 319.48 1432.33 322.21 1441.16 324.87 1449.99 327.36 1458.82 329.59 1467.65 331.5 1476.48 333.02 1485.31 334.09 1494.14 334.68 1502.97 334.77 1511.8 334.35 1520.64 333.44 1529.47 332.07 1538.3 330.29 1547.13 328.16 1555.96 325.75 1567.06 343.35 1577.86 360.95 1587.18 378.55 1594.01 396.16 1597.63 413.76 1597.63 431.36 1594.02 448.96 1587.19 466.56 1577.87 484.17 1567.08 501.77 1555.97 519.37 1545.75 536.97 1537.53 554.57 1532.18 572.18 1530.3 589.78 1532.07 607.38 1537.32 624.98 1545.47 642.58 1555.64 660.19 1566.74 677.79 1577.56 695.39 1586.94 712.99 1593.86 730.59 1597.57 748.2 1597.68 765.8 1594.17 783.4 1587.43 801 1578.17 818.6 1567.4 836.21 1556.29 853.81 1546.03 871.41 1537.73 889.01 1525.75 894.11 1513.78 898.29 1501.8 901.3 1489.82 902.93 1477.84 903.07 1465.87 901.73 1453.89 898.99 1441.91 895.02 1429.93 890.08 1417.96 884.49 1405.98 878.61 1394 872.81 1382.02 867.49 1370.05 862.97 1358.07 859.55 1346.09 857.44 1334.11 856.8 1322.14 857.65 1310.16 859.94 1298.18 863.53 1286.2 868.18 1274.23 873.6 1262.25 879.42 1250.27 885.29 1238.29 890.81 1226.32 895.63 1214.34 899.45 1202.36 902 1190.38 903.14 1178.41 902.79 1166.43 900.96 1154.45 897.78 1142.47 893.45 1130.5 888.25 1118.52 882.52 1106.54 876.63 1094.56 870.95 1082.59 865.86 1070.61 861.68 1058.63 858.68 1046.65 857.06 1034.68 856.92 1022.7 858.27 1010.72 861.02 998.74 864.99 986.77 869.93 974.79 875.53 962.81 881.41 950.83 887.2 938.86 892.52 926.88 897.04 914.9 900.46 902.92 902.55 890.95 903.19 878.97 902.33 866.99 900.03 855.01 896.44 843.04 891.79 831.06 886.37 819.08 880.54 807.1 874.68 795.12 869.16 783.15 864.34 771.17 860.53 759.19 857.98 747.21 856.85 735.24 857.21 723.26 859.04 711.28 862.23 699.3 866.56 687.33 871.76 675.35 877.49 663.37 883.38 651.39 889.06 639.42 894.15 627.44 898.32 615.46 901.32 603.48 902.93 591.51 903.07 579.53 901.72 567.55 898.96 555.57 894.98 543.6 890.03 531.62 884.44 519.64 878.56 507.66 872.77 495.69 867.45 483.71 862.93 471.73 859.52 459.75 857.43 447.78 856.8 435.8 857.66 423.82 859.97 411.84 863.57 399.87 868.23 387.89 873.64 375.91 879.47 363.93 885.33 351.96 890.85 339.98 895.67 328 899.47 316.02 902.02 304.05 903.15 292.07 902.78 280.09 900.94 268.11 897.75 256.14 893.41 244.16 888.21 232.18 882.47 220.2 876.58 208.23 870.91 196.25 865.82 184.27 861.65 172.29 858.66 160.32 857.05 148.34 856.92 136.36 858.28 124.38 861.04 112.41 865.03 100.43 869.98 88.45 875.58 76.47 881.46 64.5 887.25 52.52 892.57 40.54 897.07 28.56 900.48 10.13 897.8 2.56 882.89 1.32 872.74 0.01 862.59 -1.34 852.44 -2.68 842.29 -4.29 827.07 -4.12 822 7.93 814.91 20.11 806.42 32.41 796.67 44.82 785.91 57.34 774.46 69.96 762.67 82.67 750.92 95.46 739.57 108.31 728.97 121.21 719.4 134.14 711.08 147.1 704.12 160.06 698.58 173.02 694.38 185.95 691.38 198.85 689.35 211.7 688 224.5 686.99 237.23 685.96 249.89 684.57 262.48 682.49 274.99 679.45 287.42 675.24 299.78 669.73 312.07 662.9 324.29 654.78 336.46 645.52 348.58 635.32 360.66 624.48 372.73 613.29 384.78 602.1 396.83 591.23 408.91 581 421.02 571.66 433.18 563.42 445.4 556.39 457.69 550.62 470.07 546.07 482.55 542.59 495.14 540.01 507.83 538.06 520.65 536.45 533.58 534.86 546.63 532.97 559.8 530.51 573.07 527.22 586.45 522.91 599.92 517.46 613.46 510.82 627.07 503.05 640.73 494.25 654.41 484.6 668.1 474.35 681.78 463.76 695.42 453.13 709.01 442.77 722.52 432.93 735.92 423.86 749.21 415.74 762.35 408.68 775.33 402.72 788.14 397.83 800.76 393.92 813.19 390.8 823.04 392.38 832.89 394.21 842.72 396.17 852.55 398.12 862.36 399.94 872.16 401.5 881.94 402.69 891.71 403.4 901.47 403.56 911.22 403.11 920.95 402.02 930.66 400.29 940.36 397.94 950.05 395.01 959.72 391.57 969.38 387.72 979.02 383.55 988.65 379.2 998.26 374.79 1007.85 370.44 1017.43 366.29 1026.99 362.44 1036.54 359.02 1046.07 356.1 1055.59 353.75 1065.08 352.01 1074.56 350.91 1084.03 350.43 1093.48 350.55 1102.91 351.2 1112.32 352.3 1121.72 353.77 1131.1 355.48 1140.47 357.32 1149.82 359.16 1159.15 360.87 1168.47 362.34 1177.77 363.45 1187.05 364.1 1196.32 364.23 1205.57 363.77 1214.81 362.7 1224.03 361 1233.24 358.71 1242.43 355.85 1251.61 352.51 1260.78 348.77 1269.93 344.72 1279.06 340.49 1288.18 336.19 1297.29 331.95 1306.39 327.9 1315.47 324.14 1324.54 320.79 1333.6 317.91 1342.65 315.58 1351.69 313.85 1360.71 312.72 1369.73 312.2 1378.73 312.24 1387.73 312.81 1396.72 313.81 1405.69 315.17 1414.67 316.76" fill="url(#uuunion-grad3)" filter="url(#uuunion-blur2)"></path></svg>