<svg xmlns="http://www.w3.org/2000/svg" version="1.1" xmlns:xlink="http://www.w3.org/1999/xlink" xmlns:svgjs="http://svgjs.dev/svgjs" viewBox="0 0 1422 800"><defs><linearGradient x1="50%" y1="0%" x2="50%" y2="100%" id="oooscillate-grad"><stop stop-color="hsl(206, 75%, 49%)" stop-opacity="1" offset="0%"></stop><stop stop-color="rgb(0, 199, 186)" stop-opacity="1" offset="100%"></stop></linearGradient></defs><g stroke-width="4" stroke="url(#oooscillate-grad)" fill="none" stroke-linecap="round"><path d="M 0 609 Q 355.5 -100 711 400 Q 1066.5 900 1422 609" opacity="0.05"></path><path d="M 0 580 Q 355.5 -100 711 400 Q 1066.5 900 1422 580" opacity="0.10"></path><path d="M 0 551 Q 355.5 -100 711 400 Q 1066.5 900 1422 551" opacity="0.15"></path><path d="M 0 522 Q 355.5 -100 711 400 Q 1066.5 900 1422 522" opacity="0.19"></path><path d="M 0 493 Q 355.5 -100 711 400 Q 1066.5 900 1422 493" opacity="0.24"></path><path d="M 0 464 Q 355.5 -100 711 400 Q 1066.5 900 1422 464" opacity="0.29"></path><path d="M 0 435 Q 355.5 -100 711 400 Q 1066.5 900 1422 435" opacity="0.33"></path><path d="M 0 406 Q 355.5 -100 711 400 Q 1066.5 900 1422 406" opacity="0.38"></path><path d="M 0 377 Q 355.5 -100 711 400 Q 1066.5 900 1422 377" opacity="0.43"></path><path d="M 0 348 Q 355.5 -100 711 400 Q 1066.5 900 1422 348" opacity="0.48"></path><path d="M 0 319 Q 355.5 -100 711 400 Q 1066.5 900 1422 319" opacity="0.53"></path><path d="M 0 290 Q 355.5 -100 711 400 Q 1066.5 900 1422 290" opacity="0.57"></path><path d="M 0 261 Q 355.5 -100 711 400 Q 1066.5 900 1422 261" opacity="0.62"></path><path d="M 0 232 Q 355.5 -100 711 400 Q 1066.5 900 1422 232" opacity="0.67"></path><path d="M 0 203 Q 355.5 -100 711 400 Q 1066.5 900 1422 203" opacity="0.71"></path><path d="M 0 174 Q 355.5 -100 711 400 Q 1066.5 900 1422 174" opacity="0.76"></path><path d="M 0 145 Q 355.5 -100 711 400 Q 1066.5 900 1422 145" opacity="0.81"></path><path d="M 0 116 Q 355.5 -100 711 400 Q 1066.5 900 1422 116" opacity="0.86"></path><path d="M 0 87 Q 355.5 -100 711 400 Q 1066.5 900 1422 87" opacity="0.91"></path><path d="M 0 58 Q 355.5 -100 711 400 Q 1066.5 900 1422 58" opacity="0.95"></path></g></svg>